<mxfile host="app.diagrams.net" modified="2021-06-24T12:10:10.543Z" agent="5.0 (Windows NT 10.0; Win64; x64) AppleWebKit/537.36 (KHTML, like Gecko) Chrome/91.0.4472.77 Safari/537.36" etag="AGsJyK2AjJCCMadgj_wI" version="14.8.0" type="github">
  <diagram id="mAe1eP35NKUFFE3V6qrp" name="Page-1">
    <mxGraphModel dx="1038" dy="491" grid="1" gridSize="10" guides="1" tooltips="1" connect="1" arrows="1" fold="1" page="1" pageScale="1" pageWidth="1169" pageHeight="827" math="0" shadow="0">
      <root>
        <mxCell id="0" />
        <mxCell id="1" parent="0" />
        <mxCell id="CoesgLs1GWu-mmhLXr6r-1" value="" style="rounded=0;whiteSpace=wrap;html=1;sketch=1;" parent="1" vertex="1">
          <mxGeometry x="190" y="290" width="650" height="60" as="geometry" />
        </mxCell>
        <mxCell id="CoesgLs1GWu-mmhLXr6r-3" value="Partition" style="text;html=1;strokeColor=none;fillColor=none;align=center;verticalAlign=middle;whiteSpace=wrap;rounded=0;sketch=1;fontFamily=中国式手写风;fontSize=36;fontColor=#FF0000;" parent="1" vertex="1">
          <mxGeometry x="400" y="150" width="200" height="80" as="geometry" />
        </mxCell>
        <mxCell id="CoesgLs1GWu-mmhLXr6r-4" value="v" style="rounded=0;whiteSpace=wrap;html=1;sketch=1;fontFamily=中国式手写风;fontSize=36;fontColor=#FF0000;fillColor=#FF0000;" parent="1" vertex="1">
          <mxGeometry x="190" y="290" width="50" height="60" as="geometry" />
        </mxCell>
        <mxCell id="CoesgLs1GWu-mmhLXr6r-5" value="&amp;lt;= v" style="rounded=0;whiteSpace=wrap;html=1;sketch=1;fontFamily=中国式手写风;fontSize=36;fontColor=#FF0000;fillColor=#FF8000;" parent="1" vertex="1">
          <mxGeometry x="240" y="290" width="440" height="60" as="geometry" />
        </mxCell>
        <mxCell id="CoesgLs1GWu-mmhLXr6r-6" value="&amp;gt; v" style="rounded=0;whiteSpace=wrap;html=1;sketch=1;fontFamily=中国式手写风;fontSize=36;fontColor=#FF0000;fillColor=#7F00FF;" parent="1" vertex="1">
          <mxGeometry x="680" y="290" width="160" height="60" as="geometry" />
        </mxCell>
        <mxCell id="CoesgLs1GWu-mmhLXr6r-7" value="arr[l+1...j] &amp;lt; =v" style="text;html=1;strokeColor=none;fillColor=none;align=center;verticalAlign=middle;whiteSpace=wrap;rounded=0;sketch=1;fontFamily=中国式手写风;fontSize=30;fontColor=#FF0000;" parent="1" vertex="1">
          <mxGeometry x="300" y="220" width="280" height="70" as="geometry" />
        </mxCell>
        <mxCell id="CoesgLs1GWu-mmhLXr6r-8" value="arr[j+1...i-1] &amp;gt; v" style="text;html=1;strokeColor=none;fillColor=none;align=center;verticalAlign=middle;whiteSpace=wrap;rounded=0;sketch=1;fontFamily=中国式手写风;fontSize=30;fontColor=#FF0000;" parent="1" vertex="1">
          <mxGeometry x="630" y="220" width="280" height="70" as="geometry" />
        </mxCell>
        <mxCell id="CoesgLs1GWu-mmhLXr6r-9" value="" style="rounded=0;whiteSpace=wrap;html=1;sketch=1;" parent="1" vertex="1">
          <mxGeometry x="190" y="470" width="650" height="60" as="geometry" />
        </mxCell>
        <mxCell id="CoesgLs1GWu-mmhLXr6r-10" value="v" style="rounded=0;whiteSpace=wrap;html=1;sketch=1;fontFamily=中国式手写风;fontSize=36;fontColor=#FF0000;fillColor=#FF0000;" parent="1" vertex="1">
          <mxGeometry x="190" y="470" width="50" height="60" as="geometry" />
        </mxCell>
        <mxCell id="CoesgLs1GWu-mmhLXr6r-11" value="&amp;lt;= v" style="rounded=0;whiteSpace=wrap;html=1;sketch=1;fontFamily=中国式手写风;fontSize=36;fontColor=#FF0000;fillColor=#FF8000;" parent="1" vertex="1">
          <mxGeometry x="240" y="470" width="170" height="60" as="geometry" />
        </mxCell>
        <mxCell id="CoesgLs1GWu-mmhLXr6r-12" value="&amp;gt; v" style="rounded=0;whiteSpace=wrap;html=1;sketch=1;fontFamily=中国式手写风;fontSize=36;fontColor=#FF0000;fillColor=#7F00FF;" parent="1" vertex="1">
          <mxGeometry x="410" y="470" width="430" height="60" as="geometry" />
        </mxCell>
        <mxCell id="CoesgLs1GWu-mmhLXr6r-13" value="arr[l+1...j] &amp;lt; =v" style="text;html=1;strokeColor=none;fillColor=none;align=center;verticalAlign=middle;whiteSpace=wrap;rounded=0;sketch=1;fontFamily=中国式手写风;fontSize=30;fontColor=#FF0000;" parent="1" vertex="1">
          <mxGeometry x="185" y="400" width="280" height="70" as="geometry" />
        </mxCell>
        <mxCell id="CoesgLs1GWu-mmhLXr6r-14" value="arr[j+1...i-1] &amp;gt; v" style="text;html=1;strokeColor=none;fillColor=none;align=center;verticalAlign=middle;whiteSpace=wrap;rounded=0;sketch=1;fontFamily=中国式手写风;fontSize=30;fontColor=#FF0000;" parent="1" vertex="1">
          <mxGeometry x="490" y="400" width="280" height="70" as="geometry" />
        </mxCell>
      </root>
    </mxGraphModel>
  </diagram>
</mxfile>
